/* XPM */
static char *wall_xpm[] = {
"64 64 6 1",
"R c #000000",  /* rouge foncé */
"B c #2a63a5",  /* marron brique */
"L c #b222a6",  /* rouge clair */
"D c #fbff1f",  /* rouge très foncé */
"E c #ff0000",  /* rouge très foncé */
"F c #f8f8f8",  /* rouge très foncé */
"ERRRRRLRRRRRRRRRRRRRRRRRRRRRRRRRRRRRRRRRRRRRRRRRRRRRRRRRRRRRRRRR",
"LLLLLLLLBBLLBBLLBBLLBBLLBBLLBBLLBBLLBBLLBBLLBBLLBBLLBBLLBBLRRRRR",
"DDDDDDDDRRDDRRDDRRDDRRDDRRDDRRDDRRDDRRDDRRDDRRDDRRDDRRDDRRDRRRRR",
"RRRRRRRRRBLLBBLLBBLLBBLLBBLLBBLLBBLLBBLLBBLLBBLLBBLLBBLLBBLLBBLR",
"BBBBBBBBBRBBRRBBRRBBRRBBRRBBRRBBRRBBRRBBRRBBRRBBRRBBRRBBRRBBRRBR",
"LLLLLLLLBBLLBBLLBBLLBBLLBBLLBBLLBBLLBBLLBBLLBBLLBBLLBBLLBBLLBBLL",
"DDDDDDDDDDDDRRDDRRDDRRDDRRDDRRDDRRDDRRDDRRDDRRDDRRDDRRDDRRDDRRDD",
"RRRRRRRRRRLLBBLLBBLLBBLLBBLLBBLLBBLLBBLLBBLLBBLLBBLLBBLLBBLLBBLL",
"BBBBBBBBBBBBRRBBRRBBRRBBRRBBRRBBRRBBRRBBRRBBRRBBRRBBRRBBRRBBRRBB",
"LLLLLLLLLBLLBBLLBBLLBBLLBBLLBBLLBBLLBBLLBBLLBBLLBBLLBBLLBBLLBBLL",
"RRDDRRLDRDDDRRDDRRDDRRDDRRDDRRDDRRDDRRDDRRDDRRDDRRDDRRDDRRDDRRDD",
"BBLLBBLLBBDLBBLLBBLLBBLLBBLLBBLLBBLLBBLLBBLLBBLLBBLLBBLLBBLLBBLL",
"RRBBRRBBRRBDRRBBRRBBRRBBRRBBRRBBRRBBRRBBRRBBRRBBRRBBRRBBRRBBRRBB",
"BBLLBBLLBBLLDBLLBBLLBBLLBBLLBBLLBBLLBBLLBBLLBBLLBBLLBBLLBBLLBBLL",
"RRDDRRDDRRDDRDDDRRDDRRDDRRDDRRDDRRDDRRDDRRDDRRDDRRDDRRDDRRDDRRDD",
"BBLLBBLLBBLLBBDLBBLLBBLLBBLLBBLLBBLLBBLLBBLLBBLLBBLLBBLLBBLLBBLL",
"RRBBRRBBRRBBRRBDRRBBRRBBRRBBRRBBRRBBRRBBRRBBRRBBRRBBRRBBRRBBRRBB",
"BBLLBBLLBBLLBBLLDBLLBBLLBBLLBBLLBBLLBBLLBBLLBBLLBBLLBBLLBBLLBBLL",
"RRDDRRDDRRDDRRDDRRDDRRDDRRDDRRDDRRDDRRDDRRDDRRDDRRDDRRDDRRDDRRDD",
"BBLLBBLLBBLLBBLLBBLLBBLLBBLLBBLLBBLLBBLLBBLLBBLLBBLLBBLLBBLLBBLL",
"RRBBRRBBRRBBRRBBRRBBRRBBRRBBRRBBRRBBRRBBRRBBRRBBRRBBRRBBRRBBRRBB",
"BBLLBBLLBBLLBBLLBBLLBBLLBBLLBBLLBBLLBBLLBBLLBBLLBBLLBBLLBBLLBBLL",
"RRDDRRDDRRDDRRDDRRDDRRDDRRDDRRDDRRDDRRDDRRDDRRDDRRDDRRDDRRDDRRDD",
"BBLLBBLLBBLLBBLLBBLLBBLLBBLLBBLLBBLLBBLLBBLLBBLLBBLLBBLLBBLLBBLL",
"RRBBRRBBRRBBRRBBRRBBRRBBRRBBRRBBRRBBRRBBRRBBRRBBRRBBRRBBRRBBRRBB",
"BBLLBBLLBBLLBBLLBBLLBBLLBBLLBBLLBBLLBBLLBBLLBBLLBBLLBBLLBBLLBBLL",
"RRDDRRDDRRDDRRDDRRDDRRDDRRDDRRDDRRDDRRDDRRDDRRDDRRDDRRDDRRDDRRDD",
"BBLLBBLLBBLLBBLLBBLLBBLLBBLLBBLLBBLLBBLLBBLLBBLLBBLLBBLLBBLLBBLL",
"RRBBRRBBRRBBRRBBRRBBRRBBRRBBRRBBRRBBRRBBRRBBRRBBRRBBRRBBRRBBRRBB",
"BBLLBBLLBBLLBBLLBBLLBBLLBBLLBBLLBBLLBBLLBBLLBBLLBBLLBBLLBBLLBBLL",
"RRDDRRDDRRDDRRDDRRDDRRDDRRDDRRDDRRDDRRDDRRDDRRDDRRDDRRDDRRDDRRDD",
"BBLLBBLLBBLLBBLLBBLLBBLLBBLLBBLLBBLLBBLLBBLLBBLLBBLLBBLLBBLLBBLL",
"RRBBRRBBRRBBRRBBRRBBRRBBRRBBRRBBRRBBRRBBRRBBRRBBRRBBRRBBRRBBRRBB",
"BBLLBBLLBBLLBBLLBBLLBBLLBBLLBBLLBBLLBBLLBBLLBBLLBBLLBBLLBBLLBBLL",
"RRDDRRDDRRDDRRDDRRDDRRDDRRDDRRDDRRDDRRDDRRDDRRDDRRDDRRDDRRDDRRFF",
"BBLLBBLLBBLLBBLLBBLLBBLLBBLLBBLLBBLLBBLLBBLLBBLLBBLLBBLLBBLLBBLL",
"RRBBRRBBRRBBRRBBRRBBRRBBRRBBRRBBRRBBRRBBRRBBRRBBRRBBRRBBRRBBRRBB",
"BBLLBBLLBBLLBBLLBBLLBBLLBBLLBBLLBBLLBBLLBBLLBBLLBBLLBBLLBBLLBBLL",
"RRDDRRDDRRDDRRDDRRDDRRDDRRDDRRDDRRDDRRDDRRDDRRDDRRDDRRDDRRDDRRDD",
"BBLLBBLLBBLLBBLLBBLLBBLLBBLLBBLLBBLLBBLLBBLLBBLLBBLLBBLLBBLLBBLL",
"RRBBRRBBRRBBRRBBRRBBRRBBRRBBRRBBRRBBRRBBRRBBRRBBRRBBRRBBRRBBRRBB",
"BBLLBBLLBBLLBBLLBBLLBBLLBBLLBBLLBBLLBBLLBBLLBBLLBBLLBBLLBBLLBBLL",
"RRDDRRDDRRDDRRDDRRDDRRDDRRDDRRDDRRDDRRDDRRDDRRDDRRDDRRDDRRDDRRDD",
"BBLLBBLLBBLLBBLLBBLLBBLLBBLLBBLLBBLLBBLLBBLLBBLLBBLLBBLLBBLLBBLL",
"RRBBRRBBRRBBRRBBRRBBRRBBRRBBRRBBRRBBRRBBRRBBRRBBRRBBRRBBRRBBRRBB",
"BBLLBBLLBBLLBBLLBBLLBBLLBBLLBBLLBBLLBBLLBBLLBBLLBBLLBBLLBBLLBBLL",
"RRDDRRDDRRDDRRDDRRDDRRDDRRDDRRDDRRDDRRDDRRDDRRDDRRDDRRDDRRDDRRDD",
"BBLLBBLLBBLLBBLLBBLLBBLLBBLLBBLLBBLLBBLLBBLLBBLLBBLLBBLLBBLLBBLL",
"RRBBRRBBRRBBRRBBRRBBRRBBRRBBRRBBRRBBRRBBRRBBRRBBRRBBRRBBRRBBRRBB",
"BBLLBBLLBBLLBBLLBBLLBBLLBBLLBBLLBBLLBBLLBBLLBBLLBBLLBBLLBBLLBBLL",
"RRDDRRDDRRDDRRDDRRDDRRDDRRDDRRDDRRDDRRDDRRDDRRDDRRDDRRDDRRDDRRDD",
"BBLLBBLLBBLLBBLLBBLLBBLLBBLLBBLLBBLLBBLLBBLLBBLLBBLLBBLLBBLLBBLL",
"RRBBRRBBRRBBRRBBRRBBRRBBRRBBRRBBRRBBRRBBRRBBRRBBRRBBRRBBRRBBRRBB",
"BBLLBBLLBBLLBBLLBBLLBBLLBBLLBBLLBBLLBBLLBBLLBBLLBBLLBBLLBBLLBBLL",
"RRDDRRDDRRDDRRDDRRDDRRDDRRDDRRDDRRDDRRDDRRDDRRDDRRDDRRDDRRDDFFFF",
"BBLLBBLLBBLLBBLLBBLLBBLLBBLLBBLLBBLLBBLLBBLLBBLLBBLLBBLLBBLLBBLL",
"RRBBRRBBRRBBRRBBRRBBRRBBRRBBRRBBRRBBRRBBRRBBRRBBRRBBRRBBRRBBRRBB",
"BBLLBBLLBBLLBBLLBBLLBBLLBBLLBBLLBBLLBBLLBBLLBBLLBBLLBBLLBBLLBBLL",
"RRDDRRDDRRDDRRDDRRDDRRDDRRDDRRDDRRDDRRDDRRDDRRDDRRDDRRDDRRDDRRDD",
"BBLLBBLLBBLLBBLLBBLLBBLLBBLLBBLLBBLLBBLLBBLLBBLLBBLLBBLLBBLLBBLL",
"RRBBRRBBRRBBRRBBRRBBRRBBRRBBRRBBRRBBRRBBRRBBRRBBRRBBRRBBRRBBRRBB",
"RBLLBBLLBBLLBBLLBBLLBBLLBBLLBBLLBBLLBBLLBBLLBBLLBBLLBBLLBBLLBBLR",
"RRDDRRDDRRDDRRDDRRDDRRDDRRDDRRDDRRDDRRDDRRDDRRDDRRDDRRDDRRDDRRDR",
"RBLLBBLLBBLLBBLLBBLLBBLLBBLLBBLLBBLLBBLLBBLLBBLLBBLLBBLLBFFDDFFF",
"RRRRRRRRRRRRRRRRRRRRRRRRRRRRRRRRRRRRRRRRRRRRRRRRRRRRRRRRRRRRRRRF",
};