/* XPM */
static char *wall_xpm[] = {
"64 64 4 1",
"R c #8B0000",  /* rouge foncé */
"B c #A52A2A",  /* marron brique */
"L c #B22222",  /* rouge clair */
"D c #800000",  /* rouge très foncé */
"RRBBRRBBRRBBRRBBRRBBRRBBRRBBRRBBRRBBRRBBRRBBRRBBRRBBRRBBRRBBRRBB",
"BBLLBBLLBBLLBBLLBBLLBBLLBBLLBBLLBBLLBBLLBBLLBBLLBBLLBBLLBBLLBBLL",
"RRDDRRDDRRDDRRDDRRDDRRDDRRDDRRDDRRDDRRDDRRDDRRDDRRDDRRDDRRDDRRDD",
"BBLLBBLLBBLLBBLLBBLLBBLLBBLLBBLLBBLLBBLLBBLLBBLLBBLLBBLLBBLLBBLL",
"RRBBRRBBRRBBRRBBRRBBRRBBRRBBRRBBRRBBRRBBRRBBRRBBRRBBRRBBRRBBRRBB",
"BBLLBBLLBBLLBBLLBBLLBBLLBBLLBBLLBBLLBBLLBBLLBBLLBBLLBBLLBBLLBBLL",
"RRDDRRDDRRDDRRDDRRDDRRDDRRDDRRDDRRDDRRDDRRDDRRDDRRDDRRDDRRDDRRDD",
"BBLLBBLLBBLLBBLLBBLLBBLLBBLLBBLLBBLLBBLLBBLLBBLLBBLLBBLLBBLLBBLL",
"RRBBRRBBRRBBRRBBRRBBRRBBRRBBRRBBRRBBRRBBRRBBRRBBRRBBRRBBRRBBRRBB",
"BBLLBBLLBBLLBBLLBBLLBBLLBBLLBBLLBBLLBBLLBBLLBBLLBBLLBBLLBBLLBBLL",
"RRDDRRDDRRDDRRDDRRDDRRDDRRDDRRDDRRDDRRDDRRDDRRDDRRDDRRDDRRDDRRDD",
"BBLLBBLLBBLLBBLLBBLLBBLLBBLLBBLLBBLLBBLLBBLLBBLLBBLLBBLLBBLLBBLL",
"RRBBRRBBRRBBRRBBRRBBRRBBRRBBRRBBRRBBRRBBRRBBRRBBRRBBRRBBRRBBRRBB",
"BBLLBBLLBBLLBBLLBBLLBBLLBBLLBBLLBBLLBBLLBBLLBBLLBBLLBBLLBBLLBBLL",
"RRDDRRDDRRDDRRDDRRDDRRDDRRDDRRDDRRDDRRDDRRDDRRDDRRDDRRDDRRDDRRDD",
"BBLLBBLLBBLLBBLLBBLLBBLLBBLLBBLLBBLLBBLLBBLLBBLLBBLLBBLLBBLLBBLL",
"RRBBRRBBRRBBRRBBRRBBRRBBRRBBRRBBRRBBRRBBRRBBRRBBRRBBRRBBRRBBRRBB",
"BBLLBBLLBBLLBBLLBBLLBBLLBBLLBBLLBBLLBBLLBBLLBBLLBBLLBBLLBBLLBBLL",
"RRDDRRDDRRDDRRDDRRDDRRDDRRDDRRDDRRDDRRDDRRDDRRDDRRDDRRDDRRDDRRDD",
"BBLLBBLLBBLLBBLLBBLLBBLLBBLLBBLLBBLLBBLLBBLLBBLLBBLLBBLLBBLLBBLL",
"RRBBRRBBRRBBRRBBRRBBRRBBRRBBRRBBRRBBRRBBRRBBRRBBRRBBRRBBRRBBRRBB",
"BBLLBBLLBBLLBBLLBBLLBBLLBBLLBBLLBBLLBBLLBBLLBBLLBBLLBBLLBBLLBBLL",
"RRDDRRDDRRDDRRDDRRDDRRDDRRDDRRDDRRDDRRDDRRDDRRDDRRDDRRDDRRDDRRDD",
"BBLLBBLLBBLLBBLLBBLLBBLLBBLLBBLLBBLLBBLLBBLLBBLLBBLLBBLLBBLLBBLL",
"RRBBRRBBRRBBRRBBRRBBRRBBRRBBRRBBRRBBRRBBRRBBRRBBRRBBRRBBRRBBRRBB",
"BBLLBBLLBBLLBBLLBBLLBBLLBBLLBBLLBBLLBBLLBBLLBBLLBBLLBBLLBBLLBBLL",
"RRDDRRDDRRDDRRDDRRDDRRDDRRDDRRDDRRDDRRDDRRDDRRDDRRDDRRDDRRDDRRDD",
"BBLLBBLLBBLLBBLLBBLLBBLLBBLLBBLLBBLLBBLLBBLLBBLLBBLLBBLLBBLLBBLL",
"RRBBRRBBRRBBRRBBRRBBRRBBRRBBRRBBRRBBRRBBRRBBRRBBRRBBRRBBRRBBRRBB",
"BBLLBBLLBBLLBBLLBBLLBBLLBBLLBBLLBBLLBBLLBBLLBBLLBBLLBBLLBBLLBBLL",
"RRDDRRDDRRDDRRDDRRDDRRDDRRDDRRDDRRDDRRDDRRDDRRDDRRDDRRDDRRDDRRDD",
"BBLLBBLLBBLLBBLLBBLLBBLLBBLLBBLLBBLLBBLLBBLLBBLLBBLLBBLLBBLLBBLL",
"RRBBRRBBRRBBRRBBRRBBRRBBRRBBRRBBRRBBRRBBRRBBRRBBRRBBRRBBRRBBRRBB",
"BBLLBBLLBBLLBBLLBBLLBBLLBBLLBBLLBBLLBBLLBBLLBBLLBBLLBBLLBBLLBBLL",
"RRDDRRDDRRDDRRDDRRDDRRDDRRDDRRDDRRDDRRDDRRDDRRDDRRDDRRDDRRDDRRDD",
"BBLLBBLLBBLLBBLLBBLLBBLLBBLLBBLLBBLLBBLLBBLLBBLLBBLLBBLLBBLLBBLL",
"RRBBRRBBRRBBRRBBRRBBRRBBRRBBRRBBRRBBRRBBRRBBRRBBRRBBRRBBRRBBRRBB",
"BBLLBBLLBBLLBBLLBBLLBBLLBBLLBBLLBBLLBBLLBBLLBBLLBBLLBBLLBBLLBBLL",
"RRDDRRDDRRDDRRDDRRDDRRDDRRDDRRDDRRDDRRDDRRDDRRDDRRDDRRDDRRDDRRDD",
"BBLLBBLLBBLLBBLLBBLLBBLLBBLLBBLLBBLLBBLLBBLLBBLLBBLLBBLLBBLLBBLL",
"RRBBRRBBRRBBRRBBRRBBRRBBRRBBRRBBRRBBRRBBRRBBRRBBRRBBRRBBRRBBRRBB",
"BBLLBBLLBBLLBBLLBBLLBBLLBBLLBBLLBBLLBBLLBBLLBBLLBBLLBBLLBBLLBBLL",
"RRDDRRDDRRDDRRDDRRDDRRDDRRDDRRDDRRDDRRDDRRDDRRDDRRDDRRDDRRDDRRDD",
"BBLLBBLLBBLLBBLLBBLLBBLLBBLLBBLLBBLLBBLLBBLLBBLLBBLLBBLLBBLLBBLL",
"RRBBRRBBRRBBRRBBRRBBRRBBRRBBRRBBRRBBRRBBRRBBRRBBRRBBRRBBRRBBRRBB",
"BBLLBBLLBBLLBBLLBBLLBBLLBBLLBBLLBBLLBBLLBBLLBBLLBBLLBBLLBBLLBBLL",
"RRDDRRDDRRDDRRDDRRDDRRDDRRDDRRDDRRDDRRDDRRDDRRDDRRDDRRDDRRDDRRDD",
"BBLLBBLLBBLLBBLLBBLLBBLLBBLLBBLLBBLLBBLLBBLLBBLLBBLLBBLLBBLLBBLL",
"RRBBRRBBRRBBRRBBRRBBRRBBRRBBRRBBRRBBRRBBRRBBRRBBRRBBRRBBRRBBRRBB",
"BBLLBBLLBBLLBBLLBBLLBBLLBBLLBBLLBBLLBBLLBBLLBBLLBBLLBBLLBBLLBBLL",
"RRDDRRDDRRDDRRDDRRDDRRDDRRDDRRDDRRDDRRDDRRDDRRDDRRDDRRDDRRDDRRDD",
"BBLLBBLLBBLLBBLLBBLLBBLLBBLLBBLLBBLLBBLLBBLLBBLLBBLLBBLLBBLLBBLL",
"RRBBRRBBRRBBRRBBRRBBRRBBRRBBRRBBRRBBRRBBRRBBRRBBRRBBRRBBRRBBRRBB",
"BBLLBBLLBBLLBBLLBBLLBBLLBBLLBBLLBBLLBBLLBBLLBBLLBBLLBBLLBBLLBBLL",
"RRDDRRDDRRDDRRDDRRDDRRDDRRDDRRDDRRDDRRDDRRDDRRDDRRDDRRDDRRDDRRDD",
"BBLLBBLLBBLLBBLLBBLLBBLLBBLLBBLLBBLLBBLLBBLLBBLLBBLLBBLLBBLLBBLL",
"RRBBRRBBRRBBRRBBRRBBRRBBRRBBRRBBRRBBRRBBRRBBRRBBRRBBRRBBRRBBRRBB",
"BBLLBBLLBBLLBBLLBBLLBBLLBBLLBBLLBBLLBBLLBBLLBBLLBBLLBBLLBBLLBBLL",
"RRDDRRDDRRDDRRDDRRDDRRDDRRDDRRDDRRDDRRDDRRDDRRDDRRDDRRDDRRDDRRDD",
"BBLLBBLLBBLLBBLLBBLLBBLLBBLLBBLLBBLLBBLLBBLLBBLLBBLLBBLLBBLLBBLL",
"RRBBRRBBRRBBRRBBRRBBRRBBRRBBRRBBRRBBRRBBRRBBRRBBRRBBRRBBRRBBRRBB",
"BBLLBBLLBBLLBBLLBBLLBBLLBBLLBBLLBBLLBBLLBBLLBBLLBBLLBBLLBBLLBBLL",
"RRDDRRDDRRDDRRDDRRDDRRDDRRDDRRDDRRDDRRDDRRDDRRDDRRDDRRDDRRDDRRDD",
"BBLLBBLLBBLLBBLLBBLLBBLLBBLLBBLLBBLLBBLLBBLLBBLLBBLLBBLLBBLLBBLL",
"RRBBRRBBRRBBRRBBRRBBRRBBRRBBRRBBRRBBRRBBRRBBRRBBRRBBRRBBRRBBRRBB",
};