/* XPM */
static char *_1aa08a54a18400bd641e62bae2a873aoFnalL2yFifdZP5H[] = {
/* columns rows colors chars-per-pixel */
"64 64 238 2 ",
"   c #19191F",
".  c #19191E",
"X  c #18181D",
"o  c #16161C",
"O  c #18181E",
"+  c #17161D",
"@  c #18171D",
"#  c #17171D",
"$  c #313136",
"%  c #303035",
"&  c #2B2A2E",
"*  c #232327",
"=  c #2B2B30",
"-  c #303136",
";  c #2C2C31",
":  c #222127",
">  c #212127",
",  c #23232A",
"<  c #2E2E34",
"1  c #313036",
"2  c #303036",
"3  c #222227",
"4  c #2C2C32",
"5  c #202025",
"6  c #323237",
"7  c #313135",
"8  c #36363B",
"9  c #37363C",
"0  c #3A393E",
"q  c #38383E",
"w  c #35353B",
"e  c #35343A",
"r  c #2E2E33",
"t  c #26262D",
"y  c #2F3036",
"u  c #36353B",
"i  c #36363C",
"p  c #25252A",
"a  c #24242A",
"s  c #28282F",
"d  c #333339",
"f  c #36353C",
"g  c #232328",
"h  c #39383E",
"j  c #3B3A40",
"k  c #3B3A3F",
"l  c #38383C",
"z  c #38373D",
"x  c #27272E",
"c  c #37373C",
"v  c #34333A",
"b  c #28282E",
"n  c #26262C",
"m  c #25252C",
"M  c #24242B",
"N  c #26262B",
"B  c #27272D",
"V  c #25252B",
"C  c #27262C",
"Z  c #1F1F25",
"A  c #3C3B41",
"S  c #3A393F",
"D  c #2A2A31",
"F  c #2C2D32",
"G  c #2B2B31",
"H  c #2D2D33",
"J  c #2A2930",
"K  c #29292F",
"L  c #1E1E24",
"P  c #39393E",
"I  c #323239",
"U  c #2C2B32",
"Y  c #2F2F34",
"T  c #302F35",
"R  c #2D2C32",
"E  c #25242A",
"W  c #26252B",
"Q  c #2A2A30",
"!  c #2F2F36",
"~  c #2A2A2F",
"^  c #2F2E34",
"/  c #2E2D33",
"(  c #2E2E35",
")  c #2D2C33",
"_  c #2E2F34",
"`  c #29282E",
"'  c #242429",
"]  c #232329",
"[  c #212126",
"{  c #212125",
"}  c #39393D",
"|  c #3B3B3F",
" . c #2E2D34",
".. c #2D2D32",
"X. c #323236",
"o. c #343439",
"O. c #28282D",
"+. c #202026",
"@. c #2B2A30",
"#. c #2F2F35",
"$. c #2F2E35",
"%. c #222229",
"&. c #27262D",
"*. c #1F1E25",
"=. c #1E1E25",
"-. c #1E1F24",
";. c #1B1B21",
":. c #2D2D31",
">. c #2E2E32",
",. c #201F26",
"<. c #1F1F24",
"1. c #1F1E24",
"2. c #17171C",
"3. c #15151B",
"4. c #15151A",
"5. c #17181C",
"6. c #16161B",
"7. c #16171C",
"8. c #2D2E33",
"9. c #222228",
"0. c #14141A",
"q. c #2A292F",
"w. c #25262B",
"e. c #2D2E32",
"r. c #343339",
"t. c #37373D",
"y. c #313137",
"u. c #38393E",
"i. c #292930",
"p. c #38383D",
"a. c #2B2B32",
"s. c #24252B",
"d. c #34343A",
"f. c #27272C",
"g. c #35353A",
"h. c #29292E",
"j. c #26272C",
"k. c #2C2B31",
"l. c #29282F",
"z. c #28272E",
"x. c #26252C",
"c. c #17161C",
"v. c #1E1E23",
"b. c #333238",
"n. c #2C2C33",
"m. c #2B2A31",
"M. c #323238",
"N. c #1D1D22",
"B. c #212128",
"V. c #16151B",
"C. c #18181C",
"Z. c #18171C",
"A. c #19181D",
"S. c #16151A",
"D. c #2A292D",
"F. c #29282C",
"G. c #2B2A2F",
"H. c #2C2B2F",
"J. c #29292D",
"K. c #27272B",
"L. c #3E3D40",
"P. c #1D1C21",
"I. c #454447",
"U. c #414044",
"Y. c #403F44",
"T. c #464549",
"R. c #474649",
"E. c #424246",
"W. c #3E3E43",
"Q. c #3F3E43",
"!. c #424145",
"~. c #474648",
"^. c #454548",
"/. c #3F4042",
"(. c #444447",
"). c #3C3D40",
"_. c #3A3B3E",
"`. c #3A3A3E",
"'. c #37383C",
"]. c #414043",
"[. c #28292E",
"{. c #15161A",
"}. c #17161B",
"|. c #3F3E42",
" X c #434244",
".X c #464648",
"XX c #414046",
"oX c #414045",
"OX c #404044",
"+X c #3F4044",
"@X c #3F3F43",
"#X c #403F43",
"$X c #3F3F44",
"%X c #454549",
"&X c #3B3B40",
"*X c #3A3A3F",
"=X c #34353B",
"-X c #1C1C22",
";X c #16171B",
":X c #1E1F23",
">X c #242327",
",X c #28272D",
"<X c #1D1E22",
"1X c #333335",
"2X c #424143",
"3X c #474749",
"4X c #454446",
"5X c #404143",
"6X c #353439",
"7X c #484749",
"8X c #23242A",
"9X c #16161D",
"0X c #3A3B40",
"qX c #454448",
"wX c #444347",
"eX c #3C3C41",
"rX c #3B3B41",
"tX c #3E3D42",
"yX c #39383D",
"uX c #3E3D43",
"iX c #39393F",
"pX c #38373C",
"aX c #3F3E44",
"sX c #2F3035",
"dX c #3E3F42",
"fX c #2F3034",
"gX c #3E3E42",
"hX c #353538",
"jX c #3D3D42",
"kX c #17181D",
"lX c #3D3C41",
"zX c #3C3B40",
"xX c #292A2F",
"cX c #2D2D34",
"vX c #1E1D23",
"bX c #1D1D23",
"nX c #222329",
"mX c #17181E",
/* pixels */
"                . X o O         . O + @ # O                 O # O       O o . X                     . . . . . . . . .   .       ",
"$ $ $ $ $ $ $ $ % & * = $ - $ $ % ; : > , < 1 2 $ $ $ $ $ % ; 3 4 % $ $ < 5 % 6 $ $ $ $ $ $ $ $ $ $ 7 7 7 7 7 7 7 7 7 $ 7 $ $ $ ",
"8 8 9 0 q w 8 8 e r t y u 8 8 i u $ p a s d u f 8 8 8 8 8 u % p 2 u 8 8 d g h j j k 9 i 8 8 8 8 8 8 8 8 8 8 8 8 8 8 l z 8 8 8 8 ",
"t t x c v b n t t m M t N n B x x t M M V N C x N n n n t n N M V n n n m Z h A A S D x N N N N n n t t t t t t t n F % n t t t ",
"G G G H J m K G 4 4 4 4 D m M V m t G 4 4 G K V M t G K m G K m m m M M , L P A I H t m M M M M b U G 4 4 4 4 4 4 G r Y G G G G ",
"Y Y < K m t = r Y Y T Y R n E E p b r Y Y < U W m t H Q t H 4 t m m M M , L P A ! t V m m m m p ~ r Y Y Y Y Y Y Y Y Y Y Y Y Y Y ",
"Y Y Y b b H Y Y Y T T Y ^ / R R R / Y Y Y Y Y / r / Y r / Y Y r H R m M , L P A ( m V B H H H H / Y Y Y Y Y Y Y Y Y Y Y Y Y Y Y ",
"Y Y Y b b < Y Y r ^ Y Y Y Y Y Y Y Y Y Y Y Y Y Y Y Y Y Y Y Y Y Y Y r x t , L P A ( n B s Y Y Y Y Y Y Y Y Y Y Y Y Y < ) H Y Y Y Y ",
"Y Y Y K K _ Y ^ p ` ^ Y Y Y Y Y Y Y Y Y Y Y Y Y r r Y Y Y Y Y Y Y Y Y r , L P A ( t < T Y Y Y Y Y Y Y Y Y Y Y Y G ' ] ] < Y Y Y ",
"Y Y Y < < Y Y T R / T Y Y Y Y Y Y Y Y Y Y Y Y Y ~ ~ ^ Y Y Y Y Y Y Y Y < Q 5 0 A ( t r Y Y Y Y Y Y Y Y Y Y Y Y Y ; a M M Y Y Y Y ",
"Y Y Y Y Y Y Y Y Y Y Y Y Y Y r r r < T Y Y Y Y Y b K < Y Y Y Y Y Y Y Y Y R [ 0 A ( t H Y Y Y Y r r r Y Y Y Y Y Y 4 n p m Y Y Y Y ",
"Y Y Y Y Y Y Y Y Y Y Y Y Y r ~ t t K ^ Y Y Y Y Y r r Y Y Y Y Y Y Y Y Y Y R { } |  .N H Y Y Y r x n B H Y Y Y Y Y Y r ..H Y Y Y Y ",
"Y Y Y r r Y Y Y Y Y Y Y Y < K m m x ^ Y Y Y Y Y Y Y Y Y Y Y Y Y Y Y Y / K 5 } | X.; r Y Y Y r n M m H Y Y Y Y Y Y Y Y Y Y Y Y Y ",
"Y Y < K K _ Y Y Y Y Y Y Y < Q n n b < Y Y Y Y Y Y Y Y Y r Y Y Y Y Y Y 4 M L } | o.^ Y Y Y Y r B m t H Y Y Y Y Y Y Y Y Y Y Y Y ^ ",
"Y T Q O.b _ Y Y Y Y Y Y Y Y / H H / Y Y Y Y Y Y Y Y Y G K / Y Y Y Y Y < Q +.0 A 2 s r Y Y Y Y H H / Y Y Y Y Y Y Y Y Y Y Y Y T @.",
"Y T ~ B b < Y Y Y Y Y Y Y Y Y Y Y Y Y Y Y Y Y Y Y Y Y G x H Y Y Y Y Y < ; { } | < t H < Y Y Y Y Y Y Y Y Y Y Y Y Y Y Y Y Y Y #.~ ",
"Y Y Y t M m 4 r ^ $.T Y Y Y Y Y Y Y Y Y Y Y Y Y Y Y Y Y Y Y Y Y Y Y r H %.L P A ( p m B ^ ^ ^ Y Y Y Y Y Y Y Y r ^ Y Y Y Y Y Y Y ",
"Y Y Y x M M s K @.R T Y Y Y Y Y Y Y Y Y Y Y Y Y Y Y Y Y Y Y Y Y Y r ~ K %.L P A < m m m Q ~ ~ r Y Y Y Y Y Y Y G G T Y Y Y Y Y Y ",
"r r < b M M M V m K < r r r r r r r r r r r r r r r r r r ^ ^ r ^ H m V %.L P A ( m m m m V t 4 r r r r r r H B `  .r r r r r Y ",
"n t 4 b M M M M M t &.t n n n n n n n n n n t B B B B t n t t n t m M ] %.L h A < m m m ] M ' m B B t n n n n M m x t n n n B 4 ",
"+.+.' [ +.+.Z +.Z +.*.=.=.=.=.=.=.-.-.-.-.-.-.-.*.*.*.*.*.*.Z +.Z +.*.L Z ;.:.>.W ,.Z +.+.Z +.Z 5 <.5 Z *.*.*.L 1.*.*.*.Z +.+.] ",
". . . . X 2.2.2.X . . . . . . . . . . . # 2.. . X o 3.4.o 2.@ 5.2.2.2.2.O 6.. . X # 2.2.# 2.# 7.2.2.2.2.2.5.2.2.2.2.2.+ 2.2.2.X ",
"% % % % 8.N 5 [ b % % % % % % % % % % % m 9.r % ; # 0.0.O q./ r ..R ..R ; g ] 4 ........; w.5 <.V ......e.e.....e.F a +.........",
"i u u u r.Q g a < i u u u u u u u u f t.D t r.u y.. 0.0.  d q u.z c z 9 i i.b i p.z z z u 4 ' g < i z z z z z z z t.a.V z z z z ",
"M M M m m m m m m n M M M M m M m M M m s.M M M M > X 3.  d.k j G m m m m m m n V M M M m m m m m n M M M M m M M m s.M M M M M ",
"M M m m m b i.Q Q K m m m x s B i.t t K f.a a M M ] ;..   g.h d K m h.K K K K K B m m m m x s K K K m m M t s t t s j.' M M M M ",
"M t B x B ; Y Y Y ^ b t x k./ Q < l.s < ~ B N m M M ] L   d.e b m t r r r r r r i.n n t m Q r < ^ ^ b n n Q / z.s / q.n a m M M ",
"m R H / / Y Y Y Y Y r H / < ^ < Y / / Y / H R Q m M a 1.  d.e B Q R Y Y Y Y Y Y H R H H R r Y Y Y Y H R R r Y R H Y / H k.K m M ",
"b r Y Y Y Y Y Y Y Y Y Y Y Y Y Y Y Y Y Y Y Y Y ) x m a 1.. o.e B 4 Y Y r R Y Y Y Y Y Y Y Y Y Y Y Y Y Y Y Y Y Y Y Y Y Y Y ^ U x B ",
"^ Y Y Y Y Y Y Y Y Y Y Y ^ Y Y Y Y Y Y Y Y Y Y Y / m a 1.  d e B 4 Y Y G t H Y Y Y Y Y Y Y Y Y Y Y Y Y Y ^ Y Y Y Y Y Y Y Y Y r r ",
"T T T T Y Y Y Y Y Y Y r K H Y r Y Y Y Y T T T T  .m a 1.O G R x.4 Y Y r ~ / T T T T T T Y Y Y Y Y Y Y Y ~ H Y Y Y Y T T T T T T ",
"Y T ^ ^ r Y Y Y Y Y Y ..n ; Y ..Y Y Y Y Y Y Y T / m a L c.] V M 4 Y Y T ^ T Y Y Y T T T Y Y Y Y Y Y Y r p = Y Y Y Y Y Y Y T Y Y ",
"T r B M n G T Y Y Y Y Y ^ Y Y Y Y Y Y Y Y Y Y Y / V a v.  b.d t 4 Y Y Y T Y Y Y Y < b V m Q #.Y Y Y Y Y r Y Y Y Y Y Y Y Y Y T T ",
"T  .m M n G T Y Y Y Y Y Y Y Y Y Y Y Y Y Y Y Y Y H V a L   d d.B 4 Y Y Y T Y Y Y Y ^ t M m Q #.Y Y Y Y Y Y Y Y Y Y Y Y Y Y Y Y T ",
"T r t n n ; Y Y Y Y Y Y Y Y Y Y Y r r Y Y Y Y Y / m a 1.. d e B 4 Y Y Y T Y Y Y Y r t m p = Y Y Y Y Y Y Y Y Y Y Y Y Y Y Y Y T T ",
"Y Y n.U G r Y Y Y Y Y Y Y Y r ..r Q ~ ^ Y Y Y Y H V a 1.  d.e B 4 Y Y Y T Y Y Y Y Y 4 m.~ H Y Y Y Y Y Y Y Y Y = = T Y Y Y Y Y Y ",
"Y Y Y Y Y Y Y Y Y Y Y Y Y Y H ..r K K r Y Y Y Y r t M Z   - y.x.G H Y Y T T Y Y Y Y Y Y Y Y Y Y Y Y Y Y Y Y < K K < Y Y Y Y Y Y ",
"Y Y Y Y Y Y Y Y Y Y Y Y Y Y Y Y Y Y Y Y Y Y Y Y ..t a <.2.a t M m t r #.#.T Y Y Y Y Y Y Y Y Y Y Y Y Y Y Y Y Y < < Y Y Y Y Y Y Y ",
"a.Y Y Y T Y Y Y Y Y Y Y Y Y Y Y Y Y Y Y Y Y Y / Q h.M 1.# Q Q m M m Q G G < Y Y Y Y Y Y T Y Y Y Y Y Y Y Y Y Y Y Y Y Y Y Y / G G ",
"n H < < < < < < < < < < < < < < < < < < < < ^ k.n k.V 1.  M.b.t M M m m t H Y Y Y Y Y Y Y Y Y Y Y Y Y Y Y Y Y Y Y Y Y Y ^ G m M ",
"n n n n n n n n n n n n n n n n n n n n n n n V M n a 1.  d r.&.M M M M ] n n n n n n n n t n n n t n n n n n n n n n n n m M n ",
"> 9.9.> 9.> 9.9.9.9.9.> > > > > > > > > [ > [ [ [ > +.N.X ..< ] > > > > > > > > > > > > 9.%.9.9.B.9.3 9.9.9.9.9.9.9.> > > > > 9.",
"# O o V.o 3.o o o # O C.O X Z.Z.Z.Z.Z.# 2.X 2.Z.Z.Z.Z.2.# . . X X O X 2.O X Z.2.O 2.Z.2.o o o o 2.2.2.2.O O O O O X X X X X X @ ",
"C q.A.0.0.0.0.S.4.<.~ D.F.G.H.H.H.H.H.~ f.B J.G.H.H.H.H.H.H.H.H.H.H.H.~ B q.G.B B B G.K.0.0.0.0.N.p N N N N N N N N N N N N f.@.",
"} L.P.V.S.S.S.S.v.>.I.U.Y.T.R.R.R.R.T.E.W.Q.!.T.R.R.R.R.R.R.~.~.~.R.~.^./.(.(.Y.Q.Y.^.).o 3.0.0.f.} | _.| | | | `.'.'.'.'.l } ].",
"[.p [ O {.4.3.}.|. X.XXXQ.oXOXOX+X+X+X@XQ.Q.#XoXOXOXOXOX+X+XOXOXOXOXOXOXW.$X$XW.W.$X%X$X+.;.3.0.f.P &X| | &Xk *X=Xs K K K K K w.",
"B ] 9.-X# ;X:X>XR..X^.oXQ.Q.Q.Q.Q.Q.Q.Q.Q.Q.Q.Q.W.W.W.W.W.W.W.W.W.W.W.Q.W.W.W.W.W.$X(.|.g 1.  3.f.P &X| k z e e #.V B b b b ,X] ",
"^ ) m a <XX 1X2X3X4X5X@XQ.Q.Q.Q.Q.Q.Q.Q.Q.Q.Q.Q.W.W.W.W.W.W.W.W.W.W.W.Q.Q.Q.W.Q.Q.W.@X*Xa , B.o n 0 | | S 1 ,XB t V Q H r ^ ^ / ",
"Y r t m :XX 6XI.7X^./.Q.Q.Q.Q.Q.Q.Q.Q.Q.Q.Q.Q.Q.@X@XQ.W.Q.Q.@XQ.Q.Q.Q.Q.W.Q.Q.Q.Q.Q.Q.P 8XM %.9Xf.P 0X_.G b m m x U ^ Y Y Y Y Y ",
"T r t m :XX 6XqX.XwX@XQ.Q.Q.Q.Q.Q.Q.Q.Q.Q.Q.Q.Q.Q.W.eXrXeXW.Q.Q.Q.Q.Q.tXeXtXQ.Q.Q.Q.Q.P 8XM %.9Xn yXP z p m m m K < T Y Y Y T ^ ",
"^ = m m -.X 6XqXY.#XQ.Q.W.Q.Q.Q.tXtXQ.Q.Q.Q.Q.Q.uXiXK B q.*XQ.Q.Q.Q.tXp.Q h uXQ.Q.Q.Q.P 8XM %.9Xf.pX>.b n Q r / / T T T T T T = ",
"^ @.m M v.X 6XqXW.W.Q.Q.W.Q.Q.Q.9 z tXQ.Q.Q.Q.Q.Q.S t M b S Q.Q.Q.Q.Q.0 < iXQ.Q.Q.Q.Q.P 8XM %.9Xn pX; t h.4 Y Y T T Y Y T T T G ",
"Y ^ x.M v.X r.wXW.W.Q.Q.Q.Q.Q.Q.Q r uXaXQ.Q.Q.Q.Q.j i.x q.*XQ.Q.Q.Q.Q.Q.Q.Q.W.W.Q.Q.Q.h M M %.9Xn pXG t sXY Y Y #.^ r _ Y Y Y T ",
"Y ^ x.M v.X 7 Q.dXW.Q.Q.Q.Q.Q.Q.z S Q.aXQ.Q.Q.Q.Q.tXz 9 h tX@XQ.Q.Q.Q.Q.Q.Q.W.Q.Q.Q.Q.P M M %.9Xn pXG m Y Y Y Y H ` B b Y Y Y T ",
"Y ^ x.M v.O fXgXW.W.Q.Q.Q.Q.Q.Q.uXQ.Q.Q.tXj rXQ.Q.Q.uXuXuXQ.Q.Q.Q.Q.Q.Q.Q.Q.Q.Q.Q.Q.Q.0 M M %.9Xn pXG m Y Y Y Y R m ' M < Y Y T ",
"Y ^ x.M v.X hX(.W.W.Q.Q.Q.Q.Q.Q.Q.Q.Q.Q.iX~ 2 uXQ.Q.Q.Q.Q.Q.Q.Q.Q.Q.Q.Q.Q.Q.Q.Q.Q.aXaXS M M %.9Xn pXG m Y Y Y Y ; a g ] < Y Y T ",
"Y ^ x.M L X 7 @XW.Q.Q.Q.Q.Q.Q.Q.Q.Q.Q.Q.jX8 z uXQ.Q.W.W.W.Q.Q.Q.Q.Q.Q.Q.Q.Q.Q.Q.Q.uXy.) M M %.9Xn pXG m sXY Y Y r = ~ ~ Y Y Y T ",
"Y ^ t M =.kXe.*XeXlXlXlXlXlXlXlXlXlXlXlXlXzXzXlXlXlXeXeXeXlXlXlXlXlXlXlXlXlXlXlXlXrXK n m M 9.o n pXG n < Y Y Y T Y Y Y Y Y Y T ",
"Y < t M =.# g ~ K K Q = = = ~ = = D Q Q Q ~ K K K K K K ~ = = ~ K K K K xX= D ~ Q Q m m m m ] 9Xn pXG p t = Y Y Y Y Y Y Y Y Y Y ",
"< H b V =.9X5 M V V m m m m m j.f.n m s.m V V s.n B B m m f.f.j.j.j.s.s.s.n B t n B B B m m , 9Xn pXG V m K H H r Y Y Y Y Y r H ",
"a a R x *.+ Z , M M M M M m D ( r ..t m m m m M cX! ( Q n ..r r r H m M t 4 ^ ^ r ^ ^ ^ ( s , 9Xn pXG m M M M M b ( < r r m.M ] ",
"M M x m *.+ <.g M M M M M M B b s B V M m V m m b s s t m b s s s s V m m B h.h.h.h.h.h.B m %.# B c G m M M M M t s h.h.h.B M M ",
"3 3 9.3 vX6.bX[ 3 3 %.3 9.nX9., nXnX9.9.%.9.%.%.3 9.9.3 , , , , 9.9.3 3 3 3 3 3 3 3 3 3 3 3 > O a d b g 3 3 9.] , g 3 3 3 3 3 3 ",
"O O O O 2.3.# @ O O O O mXO O O O O O O O O O O O O O O O O O O O O O O O O O O O O O O kXO O 3.O ;.  O O O O O O O O O O O O O "
};
