/* XPM */
static char *wall_xpm[] = {
"64 64 4 1",
"R c #000000",  /* rouge foncé */
"B c #2a63a5",  /* marron brique */
"L c #b222a6",  /* rouge clair */
"D c #fbff1f",  /* rouge très foncé */
"RRRRRRLRRRRRRRRRRRRRRRRRRRRRRRRRRRRRRRRRRRRRRRRRRRRRRRRRRRRRRRRR",
"LLLLLLLLBBLLBBLLBBLLBBLLBBLLBBLLBBLLBBLLBBLLBBLLBBLLBBLLBBLRRRRR",
"DDDDDDDDRRDDRRDDRRDDRRDDRRDDRRDDRRDDRRDDRRDDRRDDRRDDRRDDRRDRRRRR",
"RRRRRRRRRBLLBBLLBBLLBBLLBBLLBBLLBBLLBBLLBBLLBBLLBBLLBBLLBBLLBBLR",
"BBBBBBBBBRBBRRBBRRBBRRBBRRBBRRBBRRBBRRBBRRBBRRBBRRBBRRBBRRBBRRBR",
"LLLLLLLLBBLLBBLLBBLLBBLLBBLLBBLLBBLLBBLLBBLLBBLLBBLLBBLLBBLLBBLL",
"DDDDDDDDDDDDRRDDRRDDRRDDRRDDRRDDRRDDRRDDRRDDRRDDRRDDRRDDRRDDRRDD",
"RRRRRRRRRRLLBBLLBBLLBBLLBBLLBBLLBBLLBBLLBBLLBBLLBBLLBBLLBBLLBBLL",
"BBBBBBBBBBBBRRBBRRBBRRBBRRBBRRBBRRBBRRBBRRBBRRBBRRBBRRBBRRBBRRBB",
"LLLLLLLLLBLLBBLLBBLLBBLLBBLLBBLLBBLLBBLLBBLLBBLLBBLLBBLLBBLLBBLL",
"RRDDRRLDRDDDRRDDRRDDRRDDRRDDRRDDRRDDRRDDRRDDRRDDRRDDRRDDRRDDRRDD",
"BBLLBBLLBBDLBBLLBBLLBBLLBBLLBBLLBBLLBBLLBBLLBBLLBBLLBBLLBBLLBBLL",
"RRBBRRBBRRBDRRBBRRBBRRBBRRBBRRBBRRBBRRBBRRBBRRBBRRBBRRBBRRBBRRBB",
"BBLLBBLLBBLLDBLLBBLLBBLLBBLLBBLLBBLLBBLLBBLLBBLLBBLLBBLLBBLLBBLL",
"RRDDRRDDRRDDRDDDRRDDRRDDRRDDRRDDRRDDRRDDRRDDRRDDRRDDRRDDRRDDRRDD",
"BBLLBBLLBBLLBBDLBBLLBBLLBBLLBBLLBBLLBBLLBBLLBBLLBBLLBBLLBBLLBBLL",
"RRBBRRBBRRBBRRBDRRBBRRBBRRBBRRBBRRBBRRBBRRBBRRBBRRBBRRBBRRBBRRBB",
"BBLLBBLLBBLLBBLLDBLLBBLLBBLLBBLLBBLLBBLLBBLLBBLLBBLLBBLLBBLLBBLL",
"RRDDRRDDRRDDRRDDRRDDRRDDRRDDRRDDRRDDRRDDRRDDRRDDRRDDRRDDRRDDRRDD",
"BBLLBBLLBBLLBBLLBBLLBBLLBBLLBBLLBBLLBBLLBBLLBBLLBBLLBBLLBBLLBBLL",
"RRBBRRBBRRBBRRBBRRBBRRBBRRBBRRBBRRBBRRBBRRBBRRBBRRBBRRBBRRBBRRBB",
"BBLLBBLLBBLLBBLLBBLLBBLLBBLLBBLLBBLLBBLLBBLLBBLLBBLLBBLLBBLLBBLL",
"RRDDRRDDRRDDRRDDRRDDRRDDRRDDRRDDRRDDRRDDRRDDRRDDRRDDRRDDRRDDRRDD",
"BBLLBBLLBBLLBBLLBBLLBBLLBBLLBBLLBBLLBBLLBBLLBBLLBBLLBBLLBBLLBBLL",
"RRBBRRBBRRBBRRBBRRBBRRBBRRBBRRBBRRBBRRBBRRBBRRBBRRBBRRBBRRBBRRBB",
"BBLLBBLLBBLLBBLLBBLLBBLLBBLLBBLLBBLLBBLLBBLLBBLLBBLLBBLLBBLLBBLL",
"RRDDRRDDRRDDRRDDRRDDRRDDRRDDRRDDRRDDRRDDRRDDRRDDRRDDRRDDRRDDRRDD",
"BBLLBBLLBBLLBBLLBBLLBBLLBBLLBBLLBBLLBBLLBBLLBBLLBBLLBBLLBBLLBBLL",
"RRBBRRBBRRBBRRBBRRBBRRBBRRBBRRBBRRBBRRBBRRBBRRBBRRBBRRBBRRBBRRBB",
"BBLLBBLLBBLLBBLLBBLLBBLLBBLLBBLLBBLLBBLLBBLLBBLLBBLLBBLLBBLLBBLL",
"RRDDRRDDRRDDRRDDRRDDRRDDRRDDRRDDRRDDRRDDRRDDRRDDRRDDRRDDRRDDRRDD",
"BBLLBBLLBBLLBBLLBBLLBBLLBBLLBBLLBBLLBBLLBBLLBBLLBBLLBBLLBBLLBBLL",
"RRBBRRBBRRBBRRBBRRBBRRBBRRBBRRBBRRBBRRBBRRBBRRBBRRBBRRBBRRBBRRBB",
"BBLLBBLLBBLLBBLLBBLLBBLLBBLLBBLLBBLLBBLLBBLLBBLLBBLLBBLLBBLLBBLL",
"RRDDRRDDRRDDRRDDRRDDRRDDRRDDRRDDRRDDRRDDRRDDRRDDRRDDRRDDRRDDRRDD",
"BBLLBBLLBBLLBBLLBBLLBBLLBBLLBBLLBBLLBBLLBBLLBBLLBBLLBBLLBBLLBBLL",
"RRBBRRBBRRBBRRBBRRBBRRBBRRBBRRBBRRBBRRBBRRBBRRBBRRBBRRBBRRBBRRBB",
"BBLLBBLLBBLLBBLLBBLLBBLLBBLLBBLLBBLLBBLLBBLLBBLLBBLLBBLLBBLLBBLL",
"RRDDRRDDRRDDRRDDRRDDRRDDRRDDRRDDRRDDRRDDRRDDRRDDRRDDRRDDRRDDRRDD",
"BBLLBBLLBBLLBBLLBBLLBBLLBBLLBBLLBBLLBBLLBBLLBBLLBBLLBBLLBBLLBBLL",
"RRBBRRBBRRBBRRBBRRBBRRBBRRBBRRBBRRBBRRBBRRBBRRBBRRBBRRBBRRBBRRBB",
"BBLLBBLLBBLLBBLLBBLLBBLLBBLLBBLLBBLLBBLLBBLLBBLLBBLLBBLLBBLLBBLL",
"RRDDRRDDRRDDRRDDRRDDRRDDRRDDRRDDRRDDRRDDRRDDRRDDRRDDRRDDRRDDRRDD",
"BBLLBBLLBBLLBBLLBBLLBBLLBBLLBBLLBBLLBBLLBBLLBBLLBBLLBBLLBBLLBBLL",
"RRBBRRBBRRBBRRBBRRBBRRBBRRBBRRBBRRBBRRBBRRBBRRBBRRBBRRBBRRBBRRBB",
"BBLLBBLLBBLLBBLLBBLLBBLLBBLLBBLLBBLLBBLLBBLLBBLLBBLLBBLLBBLLBBLL",
"RRDDRRDDRRDDRRDDRRDDRRDDRRDDRRDDRRDDRRDDRRDDRRDDRRDDRRDDRRDDRRDD",
"BBLLBBLLBBLLBBLLBBLLBBLLBBLLBBLLBBLLBBLLBBLLBBLLBBLLBBLLBBLLBBLL",
"RRBBRRBBRRBBRRBBRRBBRRBBRRBBRRBBRRBBRRBBRRBBRRBBRRBBRRBBRRBBRRBB",
"BBLLBBLLBBLLBBLLBBLLBBLLBBLLBBLLBBLLBBLLBBLLBBLLBBLLBBLLBBLLBBLL",
"RRDDRRDDRRDDRRDDRRDDRRDDRRDDRRDDRRDDRRDDRRDDRRDDRRDDRRDDRRDDRRDD",
"BBLLBBLLBBLLBBLLBBLLBBLLBBLLBBLLBBLLBBLLBBLLBBLLBBLLBBLLBBLLBBLL",
"RRBBRRBBRRBBRRBBRRBBRRBBRRBBRRBBRRBBRRBBRRBBRRBBRRBBRRBBRRBBRRBB",
"BBLLBBLLBBLLBBLLBBLLBBLLBBLLBBLLBBLLBBLLBBLLBBLLBBLLBBLLBBLLBBLL",
"RRDDRRDDRRDDRRDDRRDDRRDDRRDDRRDDRRDDRRDDRRDDRRDDRRDDRRDDRRDDRRDD",
"BBLLBBLLBBLLBBLLBBLLBBLLBBLLBBLLBBLLBBLLBBLLBBLLBBLLBBLLBBLLBBLL",
"RRBBRRBBRRBBRRBBRRBBRRBBRRBBRRBBRRBBRRBBRRBBRRBBRRBBRRBBRRBBRRBB",
"BBLLBBLLBBLLBBLLBBLLBBLLBBLLBBLLBBLLBBLLBBLLBBLLBBLLBBLLBBLLBBLL",
"RRDDRRDDRRDDRRDDRRDDRRDDRRDDRRDDRRDDRRDDRRDDRRDDRRDDRRDDRRDDRRDD",
"BBLLBBLLBBLLBBLLBBLLBBLLBBLLBBLLBBLLBBLLBBLLBBLLBBLLBBLLBBLLBBLL",
"RRBBRRBBRRBBRRBBRRBBRRBBRRBBRRBBRRBBRRBBRRBBRRBBRRBBRRBBRRBBRRBB",
"RBLLBBLLBBLLBBLLBBLLBBLLBBLLBBLLBBLLBBLLBBLLBBLLBBLLBBLLBBLLBBLR",
"RRDDRRDDRRDDRRDDRRDDRRDDRRDDRRDDRRDDRRDDRRDDRRDDRRDDRRDDRRDDRRDR",
"RBLLBBLLBBLLBBLLBBLLBBLLBBLLBBLLBBLLBBLLBBLLBBLLBBLLBBLLBBLLBBLR",
"RRRRRRRRRRRRRRRRRRRRRRRRRRRRRRRRRRRRRRRRRRRRRRRRRRRRRRRRRRRRRRRR",
};