/* XPM */
static char *wall_xpm[] = {
"64 64 4 1",
" 	c #000000",
".	c #FFFFFF",
"X	c #FF0000",
"o	c #00ffff",
"oo............................................................oo",
"o..............................................................o",
"..    ..........................................................",
"................................................................",
"...o..................o...XXXXXXXXXX........XXXXXXXXXX......... ",
"....o.................o...XXXXXXXXXX........XXXXXXXXXX......... ",
".....oo...............o...XX................XX................. ",
".......oo.............o...XX................XX................. ",
"........oo.....oo.....o...XXXXXXXXXX........XXXXXXXXXX......... ",
".........oo...o..o....o...XXXXXXXXXX........XXXXXXXXXX......... ",
"..........oo..o..o....o...XX................XX................. ",
"...........o..o..o...o....XX................XX................. ",
"...........o.o...o..o.....XX................XXXXXXXXXX......... ",
"............o....oo.......XX................XXXXXXXXXX......... ",
"................................................................",
"................................................................",
"................................................................",
"................................................................",
"................................................................",
"................................................................",
"................................................................",
"................................................................",
"................................................................",
"................................................................",
"................................................................",
"................................................................",
"................................................................",
"................................................................",
"................................................................",
"................................................................",
"................................................................",
"................................................................",
"................................................................",
"................................................................",
"................................................................",
"................................................................",
"................................................................",
"................................................................",
"................................................................",
"................................................................",
"................................................................",
"................................................................",
"................................................................",
"................................................................",
"................................................................",
"................................................................",
"................................................................",
"................................................................",
"................................................................",
"................................................................",
"................................................................",
"................................................................",
"................................................................",
"................................................................",
"................................................................",
"................................................................",
"................................................................",
"................................................................",
"................................................................",
"................................................................",
"................................................................",
"................................................................",
"................................................................",
"o..............................................................o",
"oo............................................................oo",
};