/* XPM */
static char *wall_xpm[] = {
"64 64 4 1",
" 	c #000000",
".	c #FFFFFF",
"X	c #FF0000",
"o	c #0000FF",
"................................................................",
"................................................................",
"................................................................",
"................................................................",
"..XXXXXXXX................XXXXXXXXXX........XXXXXXXXXX......... ",
"..XXXXXXXX................XXXXXXXXXX........XXXXXXXXXX......... ",
"..XX......................XX................XX................. ",
"..XX......................XX................XX................. ",
"..XXXXXXXX................XXXXXXXXXX........XXXXXXXXXX......... ",
"..XXXXXXXX................XXXXXXXXXX........XXXXXXXXXX......... ",
"..XX......................XX................XX................. ",
"..XX......................XX................XX................. ",
"..XXXXXXXXXX..............XX................XXXXXXXXXX......... ",
"..XXXXXXXXXX..............XX................XXXXXXXXXX......... ",
"................................................................",
"................................................................",
"................................................................",
"................................................................",
"................................................................",
"................................................................",
"................................................................",
"................................................................",
"................................................................",
"................................................................",
"................................................................",
"................................................................",
"................................................................",
"................................................................",
"................................................................",
"................................................................",
"................................................................",
"................................................................",
"................................................................",
"................................................................",
"................................................................",
"................................................................",
"................................................................",
"................................................................",
"................................................................",
"................................................................",
"................................................................",
"................................................................",
"................................................................",
"................................................................",
"................................................................",
"................................................................",
"................................................................",
"................................................................",
"................................................................",
"................................................................",
"................................................................",
"................................................................",
"................................................................",
"................................................................",
"................................................................",
"................................................................",
"................................................................",
"................................................................",
"................................................................",
"................................................................",
"................................................................",
"................................................................",
"................................................................",
"................................................................",
"................................................................",
};